<svg xmlns="http://www.w3.org/2000/svg" viewBox="0 0 403 85.4">
    <title>yandex3</title>
    <path d="M32,0H371a32,32,0,0,1,32,32V53.4a32,32,0,0,1-32,32H32a32,32,0,0,1-32-32V32A32,32,0,0,1,32,0Zm68.82129,50.3252h5.4165a13.74145,13.74145,0,0,0,2.855-.28028,7.09062,7.09062,0,0,0,2.28125-.8789,4.2504,4.2504,0,0,0,1.501-1.56153,4.72636,4.72636,0,0,0,.53662-2.33008,3.46674,3.46674,0,0,0-1.15918-2.87939,6.57159,6.57159,0,0,0-3.42822-1.17188,7.13672,7.13672,0,0,0,1.52539-.4873,3.74878,3.74878,0,0,0,1.1709-.81738,3.59184,3.59184,0,0,0,.74414-1.19629,4.49181,4.49181,0,0,0,.26855-1.62207,3.48475,3.48475,0,0,0-1.65918-3.28223A9.76929,9.76929,0,0,0,106.043,32.854h-5.22168Zm5.5874-14.83545a4.81188,4.81188,0,0,1,2.2207.4248,1.65427,1.65427,0,0,1,.80518,1.61328,2.094,2.094,0,0,1-.89062,1.89356,4.19947,4.19947,0,0,1-2.33057.582h-2.34229V35.48975Zm-.04883,7.14941a5.96871,5.96871,0,0,1,2.916.54883,2.05714,2.05714,0,0,1,.93945,1.93994,2.09038,2.09038,0,0,1-1.00049,2.0127,5.40806,5.40806,0,0,1-2.61084.5498h-2.73291V42.63916Zm17.88477,7.49072a5.69239,5.69239,0,0,0,2.0249-1.28125,5.95565,5.95565,0,0,0,1.34229-2.06152,8.31689,8.31689,0,0,0,0-5.61279,5.97419,5.97419,0,0,0-1.34229-2.06153,5.5448,5.5448,0,0,0-2.0249-1.26855,7.29468,7.29468,0,0,0-2.51318-.42676,7.09016,7.09016,0,0,0-2.48926.42676,5.46468,5.46468,0,0,0-1.98828,1.26855,6.06152,6.06152,0,0,0-1.33008,2.06153,8.31689,8.31689,0,0,0,0,5.61279,6.04241,6.04241,0,0,0,1.33008,2.06152,5.61237,5.61237,0,0,0,1.98828,1.28125,6.89935,6.89935,0,0,0,2.48926.43946A7.09776,7.09776,0,0,0,124.24463,50.12988Zm-4.83154-2.98925a4.567,4.567,0,0,1-.92725-3.15967,4.52852,4.52852,0,0,1,.92725-3.13575,3.014,3.014,0,0,1,2.31836-1.01269,3.36746,3.36746,0,0,1,1.31738.25684,2.78111,2.78111,0,0,1,1.04931.76855,3.76431,3.76431,0,0,1,.69532,1.293,5.88035,5.88035,0,0,1,.25634,1.83008,4.5283,4.5283,0,0,1-.93945,3.15967,3.10286,3.10286,0,0,1-2.3789,1.01269A3.01066,3.01066,0,0,1,119.41309,47.14063ZM130.564,50.3252h2.92823l6.02685-8.73584V50.3252h2.92774V37.66064H139.543l-6.05078,8.76026V37.66064H130.564Zm7.686-14.4087a3.52985,3.52985,0,0,0,1.25684-.76855,3.233,3.233,0,0,0,.75634-1.13477,3.78018,3.78018,0,0,0,.25586-1.40332h-2.58642a1.61718,1.61718,0,0,1-.39014,1.22071,1.7572,1.7572,0,0,1-2.14746,0,1.61526,1.61526,0,0,1-.39014-1.22071h-2.58642a3.93061,3.93061,0,0,0,.24414,1.40332A3.01147,3.01147,0,0,0,133.419,35.148a3.64429,3.64429,0,0,0,1.26855.76855,5.80029,5.80029,0,0,0,3.5625,0Zm17.07959,4.16016v-2.416H144.8374v2.416h3.7334V50.3252H151.523V40.07666Zm2.39062,10.24854h2.92823l6.02685-8.73584V50.3252H169.603V37.66064h-2.90381l-6.05078,8.76026V37.66064h-2.92823Zm28.10792-.04688a6.40175,6.40175,0,0,0,1.5371-.70312l-.60937-2.27735a7.77,7.77,0,0,1-1.34277.61133,5.255,5.255,0,0,1-1.708.24414,3.6546,3.6546,0,0,1-2.78125-1.05176,4.31345,4.31345,0,0,1-1-3.084,4.45389,4.45389,0,0,1,.97558-3.145,3.47094,3.47094,0,0,1,2.66016-1.04,5.71076,5.71076,0,0,1,1.8418.25684,7.84942,7.84942,0,0,1,1.3789.62207l.60938-2.294a5.13175,5.13175,0,0,0-1.59766-.71973,8.50641,8.50641,0,0,0-2.30566-.28027,7.6139,7.6139,0,0,0-2.66016.45117,5.99577,5.99577,0,0,0-2.09863,1.293,5.77934,5.77934,0,0,0-1.36621,2.07422,8.13318,8.13318,0,0,0,0,5.55127,5.64178,5.64178,0,0,0,3.48926,3.34277,8.23862,8.23862,0,0,0,2.75781.43946A7.331,7.331,0,0,0,185.82813,50.27832Zm16.88476.04688H205.666V37.66064H194.73438V50.3252h2.95214V40.07666h5.02637Zm14.249-.19532a5.69009,5.69009,0,0,0,2.02539-1.28125,5.94749,5.94749,0,0,0,1.3418-2.06152,8.309,8.309,0,0,0,0-5.61279,5.966,5.966,0,0,0-1.3418-2.06153,5.54269,5.54269,0,0,0-2.02539-1.26855,7.28787,7.28787,0,0,0-2.51269-.42676,7.09212,7.09212,0,0,0-2.48926.42676,5.46879,5.46879,0,0,0-1.98828,1.26855,6.05453,6.05453,0,0,0-1.33008,2.06153,8.309,8.309,0,0,0,0,5.61279,6.03548,6.03548,0,0,0,1.33008,2.06152A5.61672,5.61672,0,0,0,211.96,50.12988a6.90125,6.90125,0,0,0,2.48926.43946A7.09115,7.09115,0,0,0,216.96191,50.12988Zm-4.831-2.98925a4.5671,4.5671,0,0,1-.92676-3.15967,4.52857,4.52857,0,0,1,.92676-3.13575,3.01324,3.01324,0,0,1,2.31836-1.01269,3.36742,3.36742,0,0,1,1.31738.25684,2.772,2.772,0,0,1,1.04883.76855,3.73989,3.73989,0,0,1,.69531,1.293,5.87958,5.87958,0,0,1,.25684,1.83008,4.52835,4.52835,0,0,1-.93945,3.15967,3.10435,3.10435,0,0,1-2.37891,1.01269A3.00993,3.00993,0,0,1,212.13086,47.14063Zm17.27441,2.01367h2.04981l3.66015-8.12647V50.3252h2.95215V37.66064h-3.92773l-3.48926,7.71143L227.332,37.66064h-4.05078V50.3252H225.916V41.02783Zm19.959.97558a5.69018,5.69018,0,0,0,2.02539-1.28125,5.94777,5.94777,0,0,0,1.3418-2.06152,8.309,8.309,0,0,0,0-5.61279,5.96626,5.96626,0,0,0-1.3418-2.06153,5.54277,5.54277,0,0,0-2.02539-1.26855,7.288,7.288,0,0,0-2.5127-.42676,7.09212,7.09212,0,0,0-2.48926.42676,5.469,5.469,0,0,0-1.98828,1.26855,6.05436,6.05436,0,0,0-1.33007,2.06153,8.30887,8.30887,0,0,0,0,5.61279,6.03531,6.03531,0,0,0,1.33007,2.06152,5.6169,5.6169,0,0,0,1.98828,1.28125,6.90125,6.90125,0,0,0,2.48926.43946A7.09125,7.09125,0,0,0,249.36426,50.12988Zm-4.83106-2.98925a4.5671,4.5671,0,0,1-.92675-3.15967,4.52857,4.52857,0,0,1,.92675-3.13575,3.01327,3.01327,0,0,1,2.31836-1.01269,3.3675,3.3675,0,0,1,1.31739.25684,2.772,2.772,0,0,1,1.04882.76855,3.74007,3.74007,0,0,1,.69532,1.293,5.87989,5.87989,0,0,1,.25683,1.83008,4.5283,4.5283,0,0,1-.93945,3.15967,3.10432,3.10432,0,0,1-2.37891,1.01269A3.01,3.01,0,0,1,244.5332,47.14063Zm29.47461,6.79589V47.90918h-1.90332V37.66064h-2.97656V47.90918h-3.75781V37.66064H262.418V47.90918h-3.78223V37.66064h-2.95215V50.3252h15.543l.21973,3.61132ZM276.082,50.3252h4.75781a8.95454,8.95454,0,0,0,2.25684-.26856,5.12317,5.12317,0,0,0,1.78125-.81738,3.79912,3.79912,0,0,0,1.15918-1.37891,4.31347,4.31347,0,0,0,.415-1.95117A3.62051,3.62051,0,0,0,285,42.73584a6.96566,6.96566,0,0,0-4.0625-1.02441h-1.87891V37.66064H276.082Zm4.85547-6.31934a3.01,3.01,0,0,1,1.83008.47559,1.81231,1.81231,0,0,1,.63476,1.5498,1.69959,1.69959,0,0,1-.708,1.53711,3.33638,3.33638,0,0,1-1.8545.46289h-1.78125V44.00586Zm20.91113,6.124a5.43463,5.43463,0,0,0,1.94043-1.28125,5.93189,5.93189,0,0,0,1.28028-2.06152,8.7214,8.7214,0,0,0,0-5.61279,5.95021,5.95021,0,0,0-1.28028-2.06153,5.29093,5.29093,0,0,0-1.94043-1.26855,6.74647,6.74647,0,0,0-2.415-.42676,6.50284,6.50284,0,0,0-2.13574.34082,5.66375,5.66375,0,0,0-1.78027,1.001,5.44853,5.44853,0,0,0-1.31836,1.63476,6.55966,6.55966,0,0,0-.69531,2.24512h-1.80567V37.66064h-2.95215V50.3252h2.95215V45.05469h1.75684a6.71314,6.71314,0,0,0,.6709,2.35644,5.9636,5.9636,0,0,0,1.30566,1.72461,5.33143,5.33143,0,0,0,1.80566,1.06934,6.8307,6.8307,0,0,0,4.61133-.0752Zm-4.57422-3.0039a4.77768,4.77768,0,0,1-.86621-3.1333,4.77591,4.77591,0,0,1,.86621-3.13184,2.70969,2.70969,0,0,1,2.15918-1.02832,2.75094,2.75094,0,0,1,2.1836,1.01562,4.77513,4.77513,0,0,1,.86621,3.14454,4.77211,4.77211,0,0,1-.86621,3.145,2.748,2.748,0,0,1-2.1836,1.01562A2.70878,2.70878,0,0,1,297.27441,47.126Zm23.20313,3.1875a6.58815,6.58815,0,0,0,2.19629-.86621,4.50716,4.50716,0,0,0,1.53711-1.63575,5.13644,5.13644,0,0,0,.57324-2.53711,4.61393,4.61393,0,0,0-.53711-2.355,4.56269,4.56269,0,0,0-1.37793-1.48828,6.86974,6.86974,0,0,0-1.8916-.89062q-1.04883-.31788-2.07422-.56153-.731-.16992-1.39062-.35351a5.2274,5.2274,0,0,1-1.15918-.46387,2.55949,2.55949,0,0,1-.80469-.68359,1.66137,1.66137,0,0,1-.30469-1.03614,1.82,1.82,0,0,1,.87793-1.63476,5.43775,5.43775,0,0,1,2.83008-.56152,8.84169,8.84169,0,0,1,2.44043.31543,8.28041,8.28041,0,0,1,1.95215.82519l.415-2.69727a10.083,10.083,0,0,0-1.74512-.71093,10.35736,10.35736,0,0,0-3.08692-.36817,8.18567,8.18567,0,0,0-4.92871,1.294,4.35194,4.35194,0,0,0-1.75683,3.73242,4.56147,4.56147,0,0,0,.501,2.25781,4.356,4.356,0,0,0,1.293,1.45117,6.73206,6.73206,0,0,0,1.78125.89063q.98732.32959,1.98828.57324.90236.21974,1.62305.42774a5.33668,5.33668,0,0,1,1.21973.5,2.16731,2.16731,0,0,1,.76855.73193,2.07655,2.07655,0,0,1,.26856,1.09863,1.89476,1.89476,0,0,1-1.04981,1.81739,5.94959,5.94959,0,0,1-2.75683.54882,8.02,8.02,0,0,1-1.61036-.1582,10.68475,10.68475,0,0,1-1.46386-.40234,9.20543,9.20543,0,0,1-1.23242-.53711,7.565,7.565,0,0,1-.915-.56153l-.43946,2.68457a9.38755,9.38755,0,0,0,2.22071,1.08594,10.23939,10.23939,0,0,0,3.48925.52442A12.55928,12.55928,0,0,0,320.47754,50.31348Zm14.46875,0a6.58815,6.58815,0,0,0,2.19629-.86621,4.50716,4.50716,0,0,0,1.53711-1.63575,5.13644,5.13644,0,0,0,.57324-2.53711,4.61393,4.61393,0,0,0-.53711-2.355,4.56269,4.56269,0,0,0-1.37793-1.48828,6.86974,6.86974,0,0,0-1.8916-.89062q-1.04883-.31788-2.07422-.56153-.731-.16992-1.39062-.35351a5.2274,5.2274,0,0,1-1.15918-.46387,2.55949,2.55949,0,0,1-.80469-.68359,1.66137,1.66137,0,0,1-.30469-1.03614,1.82,1.82,0,0,1,.87793-1.63476,5.43775,5.43775,0,0,1,2.83008-.56152,8.84169,8.84169,0,0,1,2.44043.31543,8.28041,8.28041,0,0,1,1.95215.82519l.415-2.69727a10.083,10.083,0,0,0-1.74512-.71093,10.35736,10.35736,0,0,0-3.08692-.36817,8.18567,8.18567,0,0,0-4.92871,1.294,4.35194,4.35194,0,0,0-1.75683,3.73242,4.56147,4.56147,0,0,0,.501,2.25781,4.356,4.356,0,0,0,1.293,1.45117,6.73206,6.73206,0,0,0,1.78125.89063q.98732.32959,1.98828.57324.90236.21974,1.62305.42774a5.33668,5.33668,0,0,1,1.21973.5,2.16731,2.16731,0,0,1,.76855.73193,2.07655,2.07655,0,0,1,.26856,1.09863,1.89476,1.89476,0,0,1-1.04981,1.81739,5.94959,5.94959,0,0,1-2.75683.54882,8.02,8.02,0,0,1-1.61036-.1582,10.68475,10.68475,0,0,1-1.46386-.40234,9.20543,9.20543,0,0,1-1.23242-.53711,7.565,7.565,0,0,1-.915-.56153l-.43946,2.68457a9.38755,9.38755,0,0,0,2.22071,1.08594,10.23939,10.23939,0,0,0,3.48925.52442A12.55928,12.55928,0,0,0,334.94629,50.31348Zm18.08008-.3418a7.66927,7.66927,0,0,0,2.69629-1.74512,8.13577,8.13577,0,0,0,1.80566-2.83008,11.72844,11.72844,0,0,0,0-7.74755,7.77545,7.77545,0,0,0-1.80566-2.78125,7.631,7.631,0,0,0-2.69629-1.6836,9.58244,9.58244,0,0,0-3.35547-.57422,9.33233,9.33233,0,0,0-3.33008.58594,7.61005,7.61005,0,0,0-2.69629,1.7207,8.02018,8.02018,0,0,0-1.80566,2.80567,11.67476,11.67476,0,0,0,0,7.73486,8.0243,8.0243,0,0,0,1.80566,2.80664,7.62115,7.62115,0,0,0,2.69629,1.71973,9.73695,9.73695,0,0,0,6.68555-.01172Zm-5.42871-2.37891a4.17177,4.17177,0,0,1-1.65918-1.0957,5.23736,5.23736,0,0,1-1.11035-1.96,9.3365,9.3365,0,0,1-.40333-2.93506,9.45,9.45,0,0,1,.40333-2.94726,5.2415,5.2415,0,0,1,1.11035-1.97266,4.182,4.182,0,0,1,1.65918-1.0957,6.11894,6.11894,0,0,1,2.07324-.34082,6.33892,6.33892,0,0,1,2.09863.34082,4.06714,4.06714,0,0,1,1.67188,1.0957,5.36109,5.36109,0,0,1,1.09765,1.97266,9.45209,9.45209,0,0,1,.40235,2.94726,9.33859,9.33859,0,0,1-.40235,2.93506,5.35728,5.35728,0,0,1-1.09765,1.96,4.05755,4.05755,0,0,1-1.67188,1.0957,6.314,6.314,0,0,1-2.09863.34082A6.09522,6.09522,0,0,1,347.59766,47.59277Zm-296.373,2.732V47.92687a6.04789,6.04789,0,0,1,.25824-1.77077,6.13974,6.13974,0,0,1,.77472-1.62322,6.1791,6.1791,0,0,0-.8485-.09223q-.4427-.01844-.92228-.01844a8.10483,8.10483,0,0,0-4.27938.99606,2.9578,2.9578,0,0,0-1.62322,2.58239V50.3248Zm19.92126,0V47.92687a3.91531,3.91531,0,0,0-.62715-2.15813,5.65344,5.65344,0,0,0-1.80767-1.71544,9.02056,9.02056,0,0,0-2.82218-1.10674,16.41049,16.41049,0,0,0-3.59689-.36891,16.2276,16.2276,0,0,0-3.56.36891,9.0204,9.0204,0,0,0-2.82217,1.10674,5.85747,5.85747,0,0,0-1.82612,1.71544,3.83405,3.83405,0,0,0-.6456,2.15813V50.3248Zm8.85389,0V48.00066a2.943,2.943,0,0,0-1.62322-2.60083,8.22764,8.22764,0,0,0-4.27938-.97762q-.4427,0-.86694.01844a6.12148,6.12148,0,0,0-.83.09223,5.77752,5.77752,0,0,1,.71938,1.58632,6.61932,6.61932,0,0,1,.23979,1.80767V50.3248ZM58.58445,46.08231a12.6972,12.6972,0,0,1,7.41513,0,3.39525,3.39525,0,0,1,2.04746,1.2912H56.57388Q56.9059,46.63567,58.58445,46.08231Zm-5.99482-4.00269a2.96089,2.96089,0,0,0-4.18716-4.18716,2.96077,2.96077,0,0,0,4.18716,4.18716Zm23.61037,0a2.96089,2.96089,0,0,0-4.18715-4.18716A2.96077,2.96077,0,0,0,76.2,42.07962Zm-10.75379-1.8999a4.44787,4.44787,0,0,0-6.28995-6.29,4.4477,4.4477,0,0,0,6.28995,6.29Zm-4.20559-2.08435a1.515,1.515,0,1,1,1.0514.42424A1.42781,1.42781,0,0,1,61.24062,38.09537Z"
          style="fill:#226dc6"/>
</svg>