    <svg width="403" height="86" viewBox="0 0 403 86" fill="none" xmlns="http://www.w3.org/2000/svg">
<rect width="403" height="85.4" rx="32" fill="black"/>
<rect x="70.35" y="24.4" width="36.6" height="36.6" rx="18.3" fill="#FC3F1D"/>
<path d="M91.229 53.6983H95.0522V31.7383H89.4911C83.8984 31.7383 80.9599 34.6137 80.9599 38.8477C80.9599 42.2286 82.5714 44.2192 85.4467 46.273L80.4543 53.6983H84.5936L90.1547 45.3883L88.2272 44.0928C85.8891 42.5129 84.7516 41.2806 84.7516 38.6265C84.7516 36.2883 86.3946 34.7084 89.5227 34.7084H91.229V53.6983Z" fill="white"/>
<path d="M127.379 32.8302H133.333C135.415 32.8302 137.001 33.1555 138.091 33.8062C139.18 34.4568 139.725 35.5548 139.725 37.1002C139.725 37.7346 139.636 38.2876 139.457 38.7594C139.278 39.2148 139.018 39.6134 138.676 39.955C138.351 40.2803 137.952 40.5487 137.481 40.7602C137.009 40.9716 136.488 41.1343 135.919 41.2482C137.383 41.4271 138.489 41.8256 139.237 42.4438C139.986 43.0619 140.36 44.0054 140.36 45.2742C140.36 46.1851 140.181 46.9659 139.823 47.6166C139.465 48.251 138.969 48.7715 138.335 49.1782C137.7 49.5686 136.952 49.8614 136.09 50.0566C135.228 50.2355 134.292 50.325 133.284 50.325H127.379V32.8302ZM130.331 35.3922V40.0526H133.479C134.455 40.0526 135.244 39.8492 135.846 39.4426C136.448 39.0196 136.749 38.3608 136.749 37.4662C136.749 36.6528 136.472 36.1079 135.919 35.8314C135.382 35.5386 134.618 35.3922 133.625 35.3922H130.331ZM130.331 42.5902V47.7874H133.577C134.13 47.7874 134.634 47.7467 135.089 47.6654C135.545 47.5678 135.935 47.4214 136.261 47.2262C136.586 47.0147 136.838 46.7463 137.017 46.421C137.196 46.0794 137.285 45.6646 137.285 45.1766C137.285 44.2168 136.968 43.5499 136.334 43.1758C135.716 42.7854 134.715 42.5902 133.333 42.5902H130.331Z" fill="white"/>
<path d="M148.541 50.569C147.646 50.569 146.817 50.4226 146.052 50.1298C145.288 49.837 144.621 49.414 144.051 48.861C143.498 48.2916 143.059 47.6003 142.734 46.787C142.425 45.9736 142.27 45.0383 142.27 43.981C142.27 42.9236 142.425 41.9883 142.734 41.175C143.059 40.3616 143.498 39.6784 144.051 39.1254C144.621 38.556 145.288 38.1331 146.052 37.8566C146.817 37.5638 147.646 37.4174 148.541 37.4174C149.436 37.4174 150.265 37.5638 151.03 37.8566C151.794 38.1331 152.461 38.556 153.031 39.1254C153.6 39.6784 154.047 40.3616 154.373 41.175C154.698 41.9883 154.861 42.9236 154.861 43.981C154.861 45.0383 154.698 45.9736 154.373 46.787C154.047 47.6003 153.6 48.2916 153.031 48.861C152.461 49.414 151.794 49.837 151.03 50.1298C150.265 50.4226 149.436 50.569 148.541 50.569ZM148.541 48.2022C149.517 48.2022 150.322 47.8606 150.957 47.1774C151.607 46.4942 151.933 45.4287 151.933 43.981C151.933 42.5495 151.607 41.4922 150.957 40.809C150.322 40.1095 149.517 39.7598 148.541 39.7598C147.581 39.7598 146.776 40.1095 146.125 40.809C145.491 41.4922 145.174 42.5495 145.174 43.981C145.174 45.4287 145.491 46.4942 146.125 47.1774C146.776 47.8606 147.581 48.2022 148.541 48.2022Z" fill="white"/>
<path d="M162.938 36.1486C162.255 36.1486 161.661 36.0591 161.157 35.8802C160.669 35.7012 160.254 35.4572 159.913 35.1482C159.587 34.8228 159.343 34.4487 159.181 34.0258C159.018 33.5866 158.937 33.123 158.937 32.635H161.426C161.426 33.2043 161.556 33.6191 161.816 33.8794C162.092 34.1234 162.467 34.2454 162.938 34.2454C163.41 34.2454 163.776 34.1234 164.036 33.8794C164.297 33.6191 164.427 33.2043 164.427 32.635H166.94C166.94 33.123 166.859 33.5866 166.696 34.0258C166.533 34.4487 166.281 34.8228 165.94 35.1482C165.614 35.4572 165.199 35.7012 164.695 35.8802C164.191 36.0591 163.605 36.1486 162.938 36.1486ZM160.035 46.4942L165.891 37.6614H168.672V50.325H165.866V41.541L160.059 50.325H157.229V37.6614H160.035V46.4942Z" fill="white"/>
<path d="M177.52 39.955V50.325H174.69V39.955H170.859V37.6614H181.424V39.955H177.52Z" fill="white"/>
<path d="M186.389 46.4942L192.245 37.6614H195.026V50.325H192.22V41.541L186.413 50.325H183.583V37.6614H186.389V46.4942Z" fill="white"/>
<path d="M209.406 50.569C208.381 50.569 207.462 50.4226 206.649 50.1298C205.836 49.8207 205.144 49.3896 204.575 48.8366C204.006 48.2672 203.566 47.5759 203.257 46.7626C202.948 45.9492 202.794 45.022 202.794 43.981C202.794 42.9562 202.948 42.0371 203.257 41.2238C203.566 40.4104 204.006 39.7272 204.575 39.1742C205.144 38.6048 205.844 38.1738 206.673 37.881C207.503 37.5719 208.43 37.4174 209.455 37.4174C210.333 37.4174 211.098 37.515 211.748 37.7102C212.415 37.9054 212.944 38.1494 213.334 38.4422V40.7846C212.83 40.4592 212.277 40.2071 211.675 40.0282C211.09 39.8492 210.406 39.7598 209.626 39.7598C207.007 39.7598 205.697 41.1668 205.697 43.981C205.697 46.7951 206.982 48.2022 209.552 48.2022C210.382 48.2022 211.09 48.1127 211.675 47.9338C212.277 47.7386 212.83 47.4946 213.334 47.2018V49.5442C212.912 49.8207 212.383 50.0647 211.748 50.2762C211.114 50.4714 210.333 50.569 209.406 50.569Z" fill="white"/>
<path d="M221.473 38.3202C221.473 37.393 221.636 36.5878 221.961 35.9046C222.287 35.2051 222.742 34.6358 223.328 34.1966C223.913 33.7411 224.613 33.3995 225.426 33.1718C226.256 32.944 227.175 32.8302 228.183 32.8302H233.869V50.325H230.892V43.5906H228.183L223.718 50.325H220.278L225.207 43.1514C223.938 42.8423 222.994 42.2811 222.376 41.4678C221.774 40.6382 221.473 39.589 221.473 38.3202ZM230.892 41.1262V35.3922H228.159C227.053 35.3922 226.166 35.6118 225.499 36.051C224.849 36.4739 224.523 37.2059 224.523 38.247C224.523 39.2718 224.816 40.0119 225.402 40.4674C225.987 40.9066 226.817 41.1262 227.891 41.1262H230.892Z" fill="white"/>
<path d="M245.489 44.9814H240.145V50.325H237.315V37.6614H240.145V42.6878H245.489V37.6614H248.319V50.325H245.489V44.9814Z" fill="white"/>
<path d="M251.151 48.0314C251.525 47.706 251.818 47.2587 252.03 46.6894C252.257 46.12 252.436 45.4124 252.566 44.5666C252.697 43.7044 252.794 42.704 252.859 41.5654C252.924 40.4267 252.981 39.1254 253.03 37.6614H262.302V48.0314H264.205V53.9362H261.741L261.521 50.325H252.786L252.566 53.9362H250.078V48.0314H251.151ZM259.472 48.0314V39.955H255.47C255.389 41.9558 255.25 43.615 255.055 44.9326C254.876 46.2339 254.575 47.2668 254.152 48.0314H259.472Z" fill="white"/>
<path d="M276.641 49.3978C276.462 49.5116 276.243 49.6418 275.983 49.7882C275.722 49.9183 275.413 50.0403 275.055 50.1542C274.698 50.268 274.283 50.3656 273.811 50.447C273.339 50.5283 272.802 50.569 272.201 50.569C269.874 50.569 268.134 49.9915 266.979 48.8366C265.84 47.6816 265.271 46.0631 265.271 43.981C265.271 42.9562 265.426 42.0371 265.735 41.2238C266.044 40.4104 266.475 39.7272 267.028 39.1742C267.581 38.6048 268.24 38.1738 269.004 37.881C269.769 37.5719 270.606 37.4174 271.517 37.4174C272.461 37.4174 273.307 37.5719 274.055 37.881C274.82 38.19 275.446 38.6536 275.934 39.2718C276.422 39.8899 276.755 40.6544 276.934 41.5654C277.129 42.4763 277.138 43.5418 276.959 44.7618H268.199C268.313 45.9167 268.695 46.787 269.346 47.3726C269.996 47.9419 271.013 48.2266 272.396 48.2266C273.404 48.2266 274.242 48.1046 274.909 47.8606C275.592 47.6003 276.17 47.3319 276.641 47.0554V49.3978ZM271.517 39.6622C270.688 39.6622 269.988 39.9143 269.419 40.4186C268.85 40.9228 268.476 41.6711 268.297 42.6634H274.25C274.283 41.6386 274.055 40.8822 273.567 40.3942C273.079 39.9062 272.396 39.6622 271.517 39.6622Z" fill="white"/>
<path d="M283.515 45.1766H282.417V50.325H279.586V37.6614H282.417V42.883H283.612L287.638 37.6614H290.615L285.833 43.7614L290.81 50.325H287.467L283.515 45.1766Z" fill="white"/>
<path d="M297.928 50.569C296.903 50.569 295.984 50.4226 295.17 50.1298C294.357 49.8207 293.666 49.3896 293.096 48.8366C292.527 48.2672 292.088 47.5759 291.779 46.7626C291.47 45.9492 291.315 45.022 291.315 43.981C291.315 42.9562 291.47 42.0371 291.779 41.2238C292.088 40.4104 292.527 39.7272 293.096 39.1742C293.666 38.6048 294.365 38.1738 295.195 37.881C296.024 37.5719 296.952 37.4174 297.976 37.4174C298.855 37.4174 299.619 37.515 300.27 37.7102C300.937 37.9054 301.466 38.1494 301.856 38.4422V40.7846C301.352 40.4592 300.799 40.2071 300.197 40.0282C299.611 39.8492 298.928 39.7598 298.147 39.7598C295.528 39.7598 294.219 41.1668 294.219 43.981C294.219 46.7951 295.504 48.2022 298.074 48.2022C298.904 48.2022 299.611 48.1127 300.197 47.9338C300.799 47.7386 301.352 47.4946 301.856 47.2018V49.5442C301.433 49.8207 300.904 50.0647 300.27 50.2762C299.636 50.4714 298.855 50.569 297.928 50.569Z" fill="white"/>
<path d="M313.069 32.8302V50.325H310.117V32.8302H313.069Z" fill="white"/>
<path d="M316.813 32.8302H322.717C323.954 32.8302 325.1 32.9684 326.158 33.245C327.231 33.5215 328.159 33.977 328.939 34.6114C329.736 35.2458 330.355 36.0835 330.794 37.1246C331.249 38.1656 331.477 39.4507 331.477 40.9798C331.477 42.5251 331.249 43.8834 330.794 45.0546C330.355 46.2095 329.728 47.1774 328.915 47.9582C328.118 48.739 327.166 49.3327 326.06 49.7394C324.97 50.1298 323.775 50.325 322.473 50.325H316.813V32.8302ZM319.765 35.3922V47.7874H322.571C323.433 47.7874 324.214 47.6572 324.913 47.397C325.629 47.1367 326.239 46.7382 326.743 46.2014C327.264 45.6646 327.662 44.9814 327.939 44.1518C328.232 43.3059 328.378 42.3055 328.378 41.1506C328.378 40.0119 328.24 39.0766 327.963 38.3446C327.687 37.5963 327.296 37.0026 326.792 36.5634C326.304 36.1242 325.719 35.8232 325.035 35.6606C324.352 35.4816 323.612 35.3922 322.815 35.3922H319.765Z" fill="white"/>
</svg>
